<svg xmlns="http://www.w3.org/2000/svg" viewBox="0 0 100 31.210986861725175" xmlns:xlink="http://www.w3.org/1999/xlink" version="1.1"  ><g transform="translate(-12.35955270221063 -46.81648029258776) scale(1.248439474469007)" id="containerlessSvgTemplate"><g fill="#FFFFFF"><path d="M80 40c-5.5 0-10 4.5-10 10s4.5 10 10 10 10-4.5 10-10-4.5-10-10-10zm0 16c-3.3 0-6-2.7-6-6s2.7-6 6-6 6 2.7 6 6-2.7 6-6 6zM37.2 45h-8.6c-1.7-3-5-5-8.7-5-5.5 0-10 4.5-10 10s4.5 10 10 10c3.7 0 6.9-2 8.7-5h8.6l5-5-5-5zM20 56c-3.3 0-6-2.7-6-6s2.7-6 6-6 6 2.7 6 6-2.7 6-6 6zm37.5-18.5L50 45.1l-7.5-7.5-5 5 7.5 7.5-7.5 7.5 5 4.9L50 55l7.5 7.5 4.9-4.9-7.5-7.6 7.5-7.5-4.9-5z"></path></g></g></svg>